{"title":"My Guardian Angel 2016 Movies HDRip XviD ESubs New +Sample ☻rDX☻","uid":14773690,"size":739247913,"categoryP":"video","categoryS":"movies","magnet":"?xt=urn:btih:1586f8d471e1d835608147f338b5e8c8a75cb81f&amp;dn=My+Guardian+Angel+2016+Movies+HDRip+XviD+ESubs+New+%2BSample+%E2%98%BBrDX%E2%98%BB&amp;tr=udp%3A%2F%2Ftracker.leechers-paradise.org%3A6969&amp;tr=udp%3A%2F%2Fzer0day.ch%3A1337&amp;tr=udp%3A%2F%2Fopen.demonii.com%3A1337&amp;tr=udp%3A%2F%2Ftracker.coppersurfer.tk%3A6969&amp;tr=udp%3A%2F%2Fexodus.desync.com%3A6969","seeders":4,"leechers":1,"uploader":"basicssom","files":3,"time":1464927560,"description":"----------------------------------------------------------------\r\nMy Guardian Angel 2016 English Movies HDRip XviD ESubs AAC New Source with Sample ☻rDX☻\r\n\r\nSCREEN SHOTS &amp; POSTER:\r\n  \nhttp://mobileshosting.com/2016/6/bike/index.htm  \nhttp://mobileshosting.com/2016/6/bike/1.html  \nhttp://mobileshosting.com/2016/6/bike/2.html  \nhttp://mobileshosting.com/2016/6/bike/3.html  \nhttp://mobileshosting.com/2016/6/bike/4.html  \nhttp://mobileshosting.com/2016/6/bike/5.html  \nhttp://mobileshosting.com/2016/6/bike/6.html  \nhttp://mobileshosting.com/2016/6/bike/7.html  \nhttp://mobileshosting.com/2016/6/bike/8.html  \nhttp://mobileshosting.com/2016/6/bike/9.html  \nhttp://mobileshosting.com/2016/6/bike/10.html\r\n\r\nFormat                                   : Matroska\r\nFormat version                           : Version 4 / Version 2\r\nFile size                                : 694 MiB\r\nDuration                                 : 1h 40mn\r\nOverall bit rate                         : 968 Kbps\r\nMovie name                               : My Guardian Angel 2016 English Movies HDRip XviD ESubs AAC New Source ☻rDX☻\r\n\r\nVideo\r\nID                                       : 1\r\nFormat                                   : MPEG-4 Visual\r\nFormat profile                           : Advanced   \r\nFormat settings, BVOP                    : Yes\r\nFormat settings, QPel                    : No\r\nFormat settings, GMC                     : No warppoints\r\nFormat settings, Matrix                  : Default (H.263)\r\nCodec ID                                 : V_MS/VFW/FOURCC / XVID\r\nCodec ID/Hint                            : XviD\r\nDuration                                 : 1h 40mn\r\nBit rate                                 : 837 Kbps\r\nWidth                                    : 640 pixels\r\nHeight                                   : 344 pixels\r\nDisplay aspect ratio                     : 1.85:1\r\nFrame rate mode                          : Constant\r\nFrame rate                               : 25.000 fps\r\nColor space                              : YUV\r\nChroma subsampling                       : 4:2:0\r\nBit depth                                : 8 bits\r\nScan type                                : Progressive\r\nCompression mode                         : Lossy\r\nBits/(Pixel*Frame)                       : 0.152\r\nStream size                              : 600 MiB (86%)\r\nTitle                                    : ☻rDX☻\r\nWriting library                          : XviD 65\r\nDefault                                  : Yes\r\nForced                                   : No\r\n\r\nAudio\r\nID                                       : 2\r\nFormat                                   : MPEG Audio\r\nFormat version                           : Version 1\r\nFormat profile                           : Layer 3\r\nMode                                     : Joint stereo\r\nCodec ID                                 : A_MPEG/L3\r\nCodec ID/Hint                            : MP3\r\nDuration                                 : 1h 40mn\r\nBit rate mode                            : Constant\r\nBit rate                                 : 112 Kbps\r\nChannel(s)                               : 2 channels\r\nSampling rate                            : 48.0 KHz\r\nCompression mode                         : Lossy\r\nStream size                              : 80.2 MiB (12%)\r\nTitle                                    : ☻rDX☻\r\nWriting library                          : LAME3.99r\r\nEncoding settings                        : -m j -V 4 -q 3 -lowpass 15.6 -b 112\r\nDefault                                  : Yes\r\nForced                                   : No\r\n\r\nIMDB \nhttp://www.imdb.com/title/tt4547076/","torrent":{"xt":"urn:btih:1586f8d471e1d835608147f338b5e8c8a75cb81f","amp;dn":"My+Guardian+Angel+2016+Movies+HDRip+XviD+ESubs+New+%2BSample+%E2%98%BBrDX%E2%98%BB","amp;tr":["udp%3A%2F%2Ftracker.leechers-paradise.org%3A6969","udp%3A%2F%2Fzer0day.ch%3A1337","udp%3A%2F%2Fopen.demonii.com%3A1337","udp%3A%2F%2Ftracker.coppersurfer.tk%3A6969","udp%3A%2F%2Fexodus.desync.com%3A6969"],"infoHash":"1586f8d471e1d835608147f338b5e8c8a75cb81f","infoHashBuffer":{"type":"Buffer","data":[21,134,248,212,113,225,216,53,96,129,71,243,56,181,232,200,167,92,184,31]},"announce":[],"urlList":[]}}